<svg data-v-423bf9ae="" xmlns="http://www.w3.org/2000/svg" viewBox="0 0 535 90" class="iconLeft"><!----><!----><!----><g data-v-423bf9ae="" id="2c2668b5-1bb7-42b8-847a-72ff7625df50" fill="white" transform="matrix(5.8708415031433105,0,0,5.8708415031433105,103.96588134765625,12.06457805633545)"><path d="M8.06 7.99C7.42 8.64 6.45 8.99 5.60 8.99C3.18 8.99 2.24 7.29 2.23 5.67C2.21 4.03 3.23 2.27 5.60 2.27C6.45 2.27 7.32 2.56 7.97 3.19L9.20 2.00C8.19 1.01 6.93 0.50 5.60 0.50C2.06 0.50 0.39 3.11 0.41 5.67C0.42 8.22 1.96 10.72 5.60 10.72C7.01 10.72 8.32 10.26 9.32 9.27ZM15.36 4.55C14.97 3.86 14.08 3.43 13.16 3.43C11.14 3.42 9.56 4.66 9.56 7.04C9.56 9.46 11.07 10.72 13.12 10.71C13.89 10.70 14.97 10.30 15.36 9.49L15.44 10.50L17.05 10.50L17.05 3.60L15.41 3.60ZM13.31 4.96C16.00 4.96 16.00 9.14 13.31 9.14C12.18 9.14 11.27 8.36 11.27 7.04C11.27 5.73 12.18 4.96 13.31 4.96ZM18.49 3.60L18.49 10.50L20.20 10.50L20.20 6.86C20.20 5.59 21.03 5.11 21.92 5.11C22.48 5.11 22.81 5.26 23.16 5.56L23.93 4.07C23.55 3.70 22.86 3.42 22.15 3.42C21.45 3.42 20.73 3.54 20.20 4.40L20.08 3.60ZM33.39 10.37L30.42 7.03C32.28 6.65 32.90 5.29 32.90 3.95C32.90 2.25 31.68 0.71 29.37 0.70C27.82 0.70 26.26 0.69 24.71 0.69L24.71 10.50L26.56 10.50L26.56 7.22L28.34 7.22L31.19 10.50L33.39 10.50ZM29.37 2.42C30.53 2.42 31.05 3.21 31.05 3.99C31.05 4.77 30.55 5.56 29.37 5.56L26.56 5.56L26.56 2.42ZM40.87 7.66C41.13 4.82 39.69 3.39 37.38 3.39C35.14 3.39 33.71 4.90 33.71 7C33.71 9.21 35.13 10.68 37.51 10.68C38.56 10.68 39.75 10.32 40.47 9.56L39.38 8.48C38.99 8.89 38.16 9.13 37.53 9.13C36.33 9.13 35.59 8.51 35.48 7.66ZM35.50 6.24C35.76 5.35 36.51 4.90 37.44 4.90C38.42 4.90 39.12 5.35 39.23 6.24ZM44.45 10.50L44.45 5.19L46.48 5.19L46.48 3.70L44.45 3.70L44.45 3.23C44.45 2.39 44.90 2.00 45.49 2.00C45.84 2.00 46.17 2.13 46.54 2.37L47.17 1.09C46.61 0.73 45.98 0.53 45.37 0.53C43.99 0.53 42.74 1.39 42.74 3.23L42.74 3.70L41.45 3.70L41.45 5.19L42.74 5.19L42.74 10.50ZM47.82 0.71L47.82 10.50L49.52 10.50L49.52 0.71ZM57.86 7.66C58.13 4.82 56.69 3.39 54.38 3.39C52.14 3.39 50.71 4.90 50.71 7C50.71 9.21 52.12 10.68 54.50 10.68C55.55 10.68 56.74 10.32 57.47 9.56L56.38 8.48C55.99 8.89 55.16 9.13 54.53 9.13C53.33 9.13 52.58 8.51 52.47 7.66ZM52.50 6.24C52.75 5.35 53.51 4.90 54.43 4.90C55.41 4.90 56.11 5.35 56.22 6.24ZM62.08 5.94L60.72 3.60L58.67 3.60L58.67 3.65L60.94 7L58.53 10.46L58.53 10.50L60.58 10.50L62.08 8.19L63.57 10.50L65.62 10.50L65.62 10.46L63.21 7L65.48 3.65L65.48 3.60L63.43 3.60ZM73.33 7.66C73.60 4.82 72.16 3.39 69.85 3.39C67.61 3.39 66.18 4.90 66.18 7C66.18 9.21 67.59 10.68 69.97 10.68C71.02 10.68 72.21 10.32 72.94 9.56L71.85 8.48C71.46 8.89 70.63 9.13 70 9.13C68.80 9.13 68.05 8.51 67.94 7.66ZM67.97 6.24C68.22 5.35 68.98 4.90 69.90 4.90C70.88 4.90 71.58 5.35 71.69 6.24Z"></path></g><!----><g data-v-423bf9ae="" id="695d61e1-5836-4ee0-b370-2bce6a7edb29" transform="matrix(1.0705366134643555,0,0,1.0705366134643555,-10.925522804260254,-7.519786357879639)" stroke="none" fill="white"><path d="M91.166 53.54c0-14.397-8.533-43.005-8.533-43.005S64.862 7.369 51.614 7.369c-13.215 0-31.932 3.167-31.932 3.167s-7.131 11.228-8.965 36.117c-.764 10.317.461 18.09 2.192 23.692v20.441h14.615v-9.032h2.062l1.734-2.146h38.783l1.91 2.146H74.1v9.685h14.617V69.034h-.15c1.426-4.579 2.599-9.997 2.599-15.494zM26.542 69.041l-9.435-3.037v-9.072l-2.999-3.925v-6.365l4.083 1.355 8.351 8.085v12.959zm42.406 0H31.745v-5.704h13.781c.326-2.449 2.347-4.342 4.819-4.342 2.478 0 4.5 1.893 4.825 4.342h13.777l.001 5.704zM16.844 37.348l4.64-22.464h58.481l3.887 22.464H16.844zm70.789 15.659l-3.004 3.925v9.072l-9.434 3.037v-12.96l8.355-8.085 4.082-1.355v6.366h.001z"></path></g><!----></svg>